Coordinates
version=1
nRows=9
nColumns=42
inDegrees=yes

Units are S.I. units (second, meters, Newtons, ...)
If the header above contains a line with 'inDegrees', this indicates whether rotational values are in degrees (yes) or radians (no).

endheader
time	pelvis_tilt	pelvis_list	pelvis_rotation	pelvis_tx	pelvis_ty	pelvis_tz	hip_flexion_r	hip_adduction_r	hip_rotation_r	knee_angle_r	knee_adduction_r	knee_angle_r_beta	ankle_angle_r	subtalar_angle_r	mtp_angle_r	hip_flexion_l	hip_adduction_l	hip_rotation_l	knee_angle_l	knee_adduction_l	knee_angle_l_beta	ankle_angle_l	subtalar_angle_l	mtp_angle_l	lumbar_extension	lumbar_bending	lumbar_rotation	arm_flex_r	arm_add_r	arm_rot_r	elbow_flex_r	pro_sup_r	wrist_flex_r	wrist_dev_r	arm_flex_l	arm_add_l	arm_rot_l	elbow_flex_l	pro_sup_l	wrist_flex_l	wrist_dev_l
      0.00000000	      4.32853829	     -2.54218263	     -4.95329684	     -1.38118143	      1.00405914	     -0.23491780	    -17.39789555	      1.91725843	      1.44161697	      7.64992690	      9.16793084	      0.13351641	     14.00481289	      7.33384010	     -9.50660053	     19.50660790	    -12.78569954	     -9.92069123	     15.65305666	     11.66473074	      0.27319738	      1.53249382	     -7.90932908	     -9.50660053	    -18.70459087	     -1.87725995	     10.35151216	     18.00138743	    -16.94031462	     -6.94762932	     35.90625802	     90.00000001	      0.00000000	      0.00000000	    -11.83855842	    -11.59018860	    -15.42173906	     14.35891053	     90.00000001	      0.00000000	      0.00000000
      0.01000000	      3.84056567	     -2.89954300	     -5.21477479	     -1.36820571	      1.00087749	     -0.23453346	    -17.59219474	      2.31863626	      1.55418898	      7.94852940	      8.94275923	      0.13872801	     14.37927562	      7.36924752	     -9.47838728	     20.16286692	    -13.35979942	    -10.63848499	     13.13760391	     12.16726493	      0.22929444	      1.15514010	     -6.30327001	     -9.47838728	    -18.23661592	     -1.64360698	     10.68458012	     18.74216018	    -17.26611164	     -6.41220736	     36.48866579	     90.00000001	      0.00000000	      0.00000000	    -12.50199642	    -11.53235784	    -15.49958120	     14.46900087	     90.00000001	      0.00000000	      0.00000000
      0.02000000	      3.98786515	     -3.02441699	     -5.74722242	     -1.35462851	      0.99854553	     -0.23439228	    -18.52480308	      2.18299164	      2.12423806	      8.13015737	      8.94659263	      0.14189801	     14.66496958	      7.35811292	     -9.39878667	     19.83650540	    -13.60146948	    -11.59839024	     10.58446350	     12.55552245	      0.18473374	      1.28326648	     -4.55168528	     -9.39878667	    -18.43003321	     -1.74245879	     11.10830399	     19.44794980	    -17.73823637	     -5.35193650	     37.31287532	     90.00000001	      0.00000000	      0.00000000	    -13.08302566	    -11.34751366	    -15.92061018	     14.43005833	     90.00000001	      0.00000000	      0.00000000
      0.03000000	      3.71506911	     -3.24166887	     -6.14303974	     -1.34116550	      0.99570201	     -0.23407386	    -18.91169554	      2.33198192	      2.51805373	      8.52875404	      8.76096867	      0.14885484	     14.92098822	      7.26072955	     -9.36242523	     20.16079110	    -13.99406307	    -12.25196361	      8.69172226	     12.98050031	      0.15169917	      1.20406857	     -3.10910781	     -9.36242523	    -18.16968686	     -1.69670993	     11.37762099	     20.19849895	    -17.98032126	     -4.67535465	     37.71499713	     90.00000001	      0.00000000	      0.00000000	    -13.67863415	    -11.20473386	    -16.19331420	     14.45570258	     90.00000001	      0.00000000	      0.00000000
      0.04000000	      3.84874696	     -3.12005611	     -6.64453228	     -1.32710265	      0.99349049	     -0.23391210	    -19.84881265	      1.95136685	      3.13945345	      8.63734556	      8.69665894	      0.15075012	     14.95251041	      6.83554004	     -9.26545067	     19.97628757	    -13.98856411	    -13.39818183	      7.31331689	     13.28866620	      0.12764146	      1.39897271	     -1.37639948	     -9.26545067	    -18.27378979	     -2.07617361	     11.60117566	     20.82473984	    -18.23681405	     -3.73273969	     38.24134473	     90.00000001	      0.00000000	      0.00000000	    -14.08656672	    -11.02218469	    -17.18144410	     14.21062299	     90.00000001	      0.00000000	      0.00000000
      0.05000000	      3.65411172	     -3.19853725	     -6.99517309	     -1.31323494	      0.99097370	     -0.23355708	    -20.25253976	      1.95311727	      3.55503878	      9.17302750	      8.47459646	      0.16009953	     15.06044403	      6.69457854	     -9.23956145	     20.24690286	    -14.17039305	    -13.77032138	      6.35506362	     13.54742633	      0.11091678	      1.47644031	     -0.53131245	     -9.23956145	    -18.04744951	     -2.20656430	     11.76080964	     21.40587778	    -18.33398014	     -3.11411573	     38.45729177	     90.00000001	      0.00000000	      0.00000000	    -14.55011420	    -10.94409875	    -17.43392411	     14.19264792	     90.00000001	      0.00000000	      0.00000000
      0.06000000	      3.85668724	     -2.89886967	     -7.45404341	     -1.29889999	      0.98914548	     -0.23359251	    -21.11399370	      1.33030945	      4.16521512	      9.52342780	      8.45033878	      0.16621517	     14.97655856	      6.30755681	     -9.16549254	     20.03719572	    -13.83522115	    -14.48371202	      5.89327915	     13.57133694	      0.10285712	      1.68275844	      0.27781107	     -9.16549254	    -18.19711766	     -2.78052671	     11.88791529	     21.83702486	    -18.49465101	     -2.30364013	     38.89628836	     90.00000001	      0.00000000	      0.00000000	    -14.78054667	    -10.78947532	    -18.41790171	     13.88596955	     90.00000001	      0.00000000	      0.00000000
      0.07000000	      3.75004346	     -2.81127831	     -7.63207805	     -1.28459614	      0.98704864	     -0.23350952	    -21.58650378	      1.18583830	      4.53004338	     10.06004597	      8.19053732	      0.17558093	     14.86052989	      6.30270123	     -9.15498790	     20.35080216	    -13.71902124	    -14.36824471	      6.02386191	     13.62508347	      0.10513622	      1.73157484	      0.35562041	     -9.15498790	    -18.03848638	     -3.06992448	     11.86419097	     22.16193712	    -18.42891222	     -2.14534701	     39.15686734	     90.00000001	      0.00000000	      0.00000000	    -15.09641138	    -10.76527095	    -18.47848592	     13.81788326	     90.00000001	      0.00000000	      0.00000000
      0.08000000	      3.78820595	     -2.57277857	     -7.96152677	     -1.27003978	      0.98532443	     -0.23356200	    -22.08948264	      0.77326759	      5.00404610	     10.80186066	      7.95469749	      0.18852803	     14.65876568	      6.15801169	     -9.14129573	     20.39275580	    -13.40479694	    -14.25363743	      6.39748209	     13.56672853	      0.11165713	      1.77129868	      0.20645549	     -9.14129573	    -17.99741733	     -3.53739783	     11.93970159	     22.37145125	    -18.44386830	     -1.76507293	     39.43742548	     90.00000001	      0.00000000	      0.00000000	    -15.33156827	    -10.71676132	    -18.64404834	     13.74962261	     90.00000001	      0.00000000	      0.00000000
